<!-- <svg width="288" height="224" viewBox="0 0 288 192" fill="none" xmlns="http://www.w3.org/2000/svg">
    <path d="M196.954 107.948C199.834 97.6233 202.138 87.1386 203.866 76.5578C205.626 72.5499 207.61 68.6381 209.786 64.8547C212.474 60.2055 215.641 55.909 218.585 51.4202C221.209 47.4123 223.577 42.9876 223.865 38.146C224.089 34.3626 223.257 30.2905 220.729 27.3407C217.945 24.0703 213.658 22.7877 209.466 23.1725C204.922 23.5573 200.794 25.962 197.274 28.7515C193.466 31.7975 189.914 35.2603 186.555 38.7552C180.059 45.5206 174.299 52.9913 169.339 60.943C165.691 59.5322 162.171 57.8328 158.652 56.1656C153.532 53.7287 148.348 51.5805 142.844 50.1377C133.021 47.5726 121.949 46.5786 112.317 50.3621C103.614 53.7929 96.2859 61.6163 96.1579 71.3635C96.0939 75.2111 97.2139 78.5777 99.0698 81.5276C95.102 83.7079 91.7421 86.818 89.6622 90.9221C87.5503 95.0903 87.1343 100.188 88.8622 104.549C89.5022 106.152 90.3982 107.595 91.4861 108.877C88.2542 111.827 85.3423 115.579 83.9984 119.779C82.7184 123.755 83.4544 127.763 85.5663 131.322C86.1743 132.316 86.8783 133.246 87.6463 134.143C84.0944 137.253 82.9424 142.352 83.9984 146.904C85.2144 152.259 89.1182 156.427 93.3101 159.73C96.5419 162.263 99.9978 164.539 103.582 166.559C105.374 167.681 107.262 168.74 109.149 169.701C111.165 170.695 113.277 171.625 115.421 172.266C116.893 172.715 118.397 173.1 119.901 173.293C120.925 173.421 121.949 173.485 122.973 173.453C123.485 173.453 123.997 173.421 124.477 173.357C125.885 173.228 127.293 172.844 128.669 172.395C129.629 172.074 130.557 171.657 131.453 171.144C132.157 170.76 132.861 170.343 133.501 169.894C137.532 170.856 141.628 171.401 145.788 171.337C154.652 171.176 162.971 167.585 169.691 161.846C177.083 155.562 182.299 147.193 186.267 138.408C190.714 128.661 194.042 118.304 196.954 107.948Z" fill="#EF9E81"/>
    <path d="M88.1515 135.176C94.2771 139.125 100.627 142.754 107.138 145.997C110.345 147.603 113.616 149.144 116.952 150.493C120.255 151.842 123.655 152.998 127.183 153.704C130.454 154.346 134.014 154.668 137.317 154.025C139.37 153.64 141.583 153.126 143.347 151.97C144.405 151.296 145.303 150.429 146.137 149.498C146.875 148.663 147.644 147.763 148.189 146.8C149.055 145.227 149.536 143.461 149.729 141.694C150.274 137.231 148.831 132.607 145.239 129.781C144.726 129.363 144.148 128.978 143.571 128.657C143.122 128.4 142.737 129.074 143.154 129.363C145.239 130.584 146.907 132.318 147.933 134.533C148.799 136.396 149.12 138.515 149.023 140.57C148.927 142.337 148.574 144.103 147.837 145.708C147.516 146.415 147.099 147.057 146.618 147.667C145.752 148.791 144.79 149.851 143.699 150.75C142.16 152.002 140.268 152.548 138.376 152.998C135.233 153.768 131.929 153.672 128.754 153.19C121.891 152.131 115.444 149.176 109.255 146.158C102.904 143.075 96.7146 139.639 90.7493 135.882C90.0116 135.433 89.306 134.951 88.5684 134.501C88.1194 134.212 87.7025 134.919 88.1515 135.176Z" fill="#C4674E"/>
    <path d="M94.1168 110.064C101.269 113.436 108.485 116.712 115.701 119.858C122.628 122.909 129.62 125.96 136.932 127.983C140.46 128.978 144.245 129.909 147.933 129.267C150.659 128.786 153.161 127.405 155.085 125.446C157.041 123.455 158.452 120.886 159.03 118.124C159.382 116.519 159.254 114.849 158.966 113.243C158.1 108.587 155.277 104.381 151.172 102.036C150.563 101.683 149.921 101.394 149.248 101.105C148.767 100.913 148.574 101.683 149.023 101.876C153.481 103.738 156.688 107.592 157.907 112.216C158.324 113.821 158.549 115.523 158.356 117.161C158.1 119.537 156.913 121.946 155.438 123.808C153.738 125.895 151.461 127.469 148.863 128.208C145.431 129.139 141.839 128.432 138.472 127.533C131.384 125.703 124.617 122.845 117.914 119.923C110.922 116.872 103.995 113.757 97.0674 110.546C96.2015 110.129 95.3355 109.743 94.4696 109.326C94.0527 109.165 93.6678 109.872 94.1168 110.064Z" fill="#C4674E"/>
    <path d="M101.654 82.8657C109.768 86.2374 117.625 90.1872 125.611 93.7516C129.556 95.5177 133.565 97.1875 137.638 98.6647C141.775 100.174 146.073 101.651 150.467 102.133C154.283 102.582 158.356 102.069 161.595 99.8207C163.071 98.7931 164.321 97.4444 165.123 95.8388C165.957 94.2012 166.342 92.3387 166.31 90.5083C166.31 86.7191 164.61 83.2189 162.109 80.4252C159.382 77.3746 155.79 75.2552 152.07 73.6175C148.895 72.2046 145.624 71.0486 142.384 69.7963C139.209 68.576 136.098 67.2915 133.02 65.8786C132.025 65.4291 131.031 64.9795 130.037 64.4978C129.588 64.273 129.171 64.9795 129.62 65.2043C132.955 66.7456 136.323 68.2228 139.723 69.6036C142.577 70.7275 145.431 71.8193 148.286 72.9111C152.102 74.3882 155.919 76.0902 159.126 78.6912C161.948 81.0032 164.354 84.086 165.187 87.6825C166.021 91.2148 165.284 95.1966 162.686 97.8298C160.088 100.463 156.271 101.491 152.647 101.426C148.286 101.362 143.988 99.9491 139.915 98.5683C135.842 97.1875 131.865 95.582 127.952 93.88C120.127 90.4762 112.494 86.6228 104.636 83.2511C103.706 82.8336 102.744 82.4483 101.814 82.0629C101.397 81.8703 101.173 82.673 101.654 82.8657Z" fill="#C4674E"/>
    <path d="M134.174 168.315C135.361 165.874 135.842 163.081 135.521 160.383C135.361 159.067 135.04 157.75 134.527 156.498C134.078 155.406 133.501 153.961 132.282 153.576C131.801 153.415 131.576 154.186 132.058 154.346C132.603 154.507 132.923 155.053 133.18 155.534C133.469 156.08 133.725 156.626 133.95 157.204C134.367 158.36 134.655 159.548 134.752 160.769C134.976 163.209 134.527 165.682 133.469 167.897C133.244 168.379 133.95 168.797 134.174 168.315Z" fill="#C4674E"/>
    <path d="M147.259 95.9672C147.42 91.022 149.568 86.2374 153.128 82.8336C153.513 82.4803 152.936 81.9023 152.551 82.2555C148.831 85.82 146.618 90.7973 146.425 95.9351C146.458 96.481 147.259 96.481 147.259 95.9672Z" fill="#C4674E"/>
    <path d="M151.878 83.9254C153.674 84.4392 155.47 85.0493 157.105 85.9805C158.42 86.7191 159.639 87.8109 159.896 89.3844C160.152 90.9257 159.447 92.4992 158.324 93.5268C157.137 94.6507 155.47 95.1645 153.866 95.2929C151.653 95.4535 149.472 94.8434 147.356 94.2332C146.875 94.1048 146.65 94.8755 147.131 95.0039C150.851 96.0957 155.309 97.027 158.613 94.3296C159.896 93.2699 160.762 91.6322 160.729 89.9303C160.729 88.1641 159.703 86.7512 158.324 85.7879C157.49 85.2099 156.56 84.7603 155.63 84.3749C154.476 83.8933 153.289 83.4758 152.07 83.1226C151.589 82.9941 151.397 83.7648 151.878 83.9254Z" fill="#C4674E"/>
    <path d="M137.478 121.464C137.638 116.165 139.947 111.06 143.764 107.399C144.148 107.046 143.571 106.468 143.186 106.821C139.209 110.61 136.836 115.941 136.644 121.464C136.644 121.978 137.445 121.978 137.478 121.464Z" fill="#C4674E"/>
    <path d="M142.449 108.555C144.341 109.101 146.265 109.775 147.997 110.738C149.44 111.541 150.787 112.729 151.044 114.463C151.268 116.101 150.531 117.771 149.344 118.863C148.029 120.083 146.233 120.629 144.501 120.757C142.128 120.918 139.819 120.276 137.574 119.633C137.093 119.505 136.868 120.276 137.349 120.404C141.262 121.56 146.009 122.556 149.504 119.762C150.916 118.638 151.846 116.872 151.846 115.041C151.846 113.147 150.723 111.638 149.248 110.578C148.35 109.936 147.356 109.486 146.361 109.069C145.143 108.555 143.892 108.105 142.641 107.752C142.16 107.624 141.935 108.394 142.449 108.555Z" fill="#C4674E"/>
    <path d="M128.818 147.314C128.979 142.015 131.288 136.91 135.104 133.249C135.489 132.896 134.912 132.318 134.527 132.671C130.55 136.46 128.177 141.791 127.984 147.314C127.984 147.828 128.786 147.828 128.818 147.314Z" fill="#C4674E"/>
    <path d="M133.789 134.373C135.682 134.919 137.606 135.593 139.338 136.556C140.781 137.359 142.128 138.547 142.385 140.281C142.609 141.919 141.871 143.589 140.685 144.681C139.37 145.901 137.574 146.447 135.842 146.575C133.469 146.736 131.16 146.094 128.915 145.451C128.433 145.323 128.209 146.094 128.69 146.222C132.603 147.378 137.349 148.374 140.845 145.58C142.256 144.456 143.186 142.69 143.186 140.859C143.186 138.965 142.064 137.456 140.589 136.396C139.691 135.754 138.696 135.304 137.702 134.887C136.483 134.373 135.233 133.923 133.982 133.57C133.501 133.442 133.276 134.244 133.789 134.373Z" fill="#C4674E"/>
    <path d="M118.523 166.806C118.652 162.824 120.383 158.97 123.27 156.209C123.655 155.856 123.077 155.278 122.693 155.631C119.646 158.521 117.85 162.599 117.721 166.774C117.721 167.32 118.523 167.32 118.523 166.806Z" fill="#C4674E"/>
    <path d="M122.179 157.108C123.591 157.525 125.034 158.007 126.317 158.746C127.375 159.356 128.401 160.223 128.594 161.507C128.786 162.727 128.209 164.012 127.311 164.815C126.317 165.714 124.97 166.099 123.687 166.196C121.923 166.292 120.223 165.842 118.523 165.329C118.042 165.2 117.818 165.971 118.299 166.099C121.314 166.966 124.938 167.737 127.6 165.585C128.69 164.718 129.396 163.37 129.396 161.957C129.396 160.512 128.562 159.324 127.407 158.489C125.932 157.429 124.072 156.819 122.34 156.337C121.891 156.177 121.698 156.947 122.179 157.108Z" fill="#C4674E"/>
    <path d="M219.773 132.51L217.111 123.358L214.642 132.51L205.79 135.432L214.642 138.419L217.111 148.341L219.901 138.483L228.432 135.432L219.773 132.51Z" fill="#FFD62A"/>
    <path d="M72.4684 62.0895L69.8706 53.1303L67.4331 62.0574L58.7738 64.9474L67.4331 67.8375L69.8706 77.5673L72.5967 67.9017L80.9673 64.9474L72.4684 62.0895Z" fill="#FFD62A"/>
    <path d="M237.028 108.972L235.424 103.449L233.917 108.972L228.593 110.706L233.917 112.505L235.424 118.509L237.092 112.569L242.255 110.706L237.028 108.972Z" fill="#FFD62A"/>
    <path d="M53.6745 91.7926L52.103 86.3978L50.6277 91.7926L45.4 93.5266L50.6277 95.2607L52.103 101.137L53.7386 95.2928L58.7739 93.5266L53.6745 91.7926Z" fill="#FFD62A"/>
    <path d="M154.957 22.4635L153.674 18L152.455 22.4635L148.157 23.8764L152.455 25.3215L153.674 30.1703L155.021 25.3536L159.19 23.8764L154.957 22.4635Z" fill="#FFD62A"/>
    <path d="M71.1535 160.255L69.8706 155.791L68.6519 160.255L64.3543 161.7L68.6519 163.145L69.8706 167.962L71.2176 163.177L75.3869 161.7L71.1535 160.255Z" fill="#FFD62A"/>
</svg> -->

<svg width="453" height="357" viewBox="0 0 453 357" fill="none" xmlns="http://www.w3.org/2000/svg">
    <path d="M348.483 206.523C355.09 182.842 360.375 158.792 364.339 134.523C368.377 125.329 372.928 116.357 377.92 107.679C384.086 97.0146 391.354 87.1596 398.107 76.8633C404.127 67.6701 409.559 57.5209 410.22 46.4156C410.734 37.7373 408.825 28.3971 403.026 21.6309C396.639 14.1293 386.802 11.1875 377.186 12.0701C366.762 12.9526 357.292 18.4685 349.217 24.8669C340.481 31.8537 332.333 39.7966 324.625 47.813C309.723 63.331 296.509 80.4669 285.131 98.7061C276.762 95.4701 268.687 91.5722 260.612 87.7479C248.867 82.1585 236.975 77.231 224.348 73.9214C201.812 68.0378 176.412 65.7579 154.316 74.4362C134.349 82.3056 117.538 100.251 117.245 122.608C117.098 131.434 119.667 139.156 123.925 145.922C114.822 150.923 107.114 158.057 102.343 167.471C97.4976 177.032 96.5433 188.725 100.507 198.727C101.976 202.405 104.031 205.714 106.527 208.656C99.1126 215.422 92.4324 224.027 89.3492 233.661C86.4128 242.781 88.1012 251.974 92.9462 260.137C94.341 262.417 95.956 264.55 97.7178 266.609C89.5694 273.743 86.9267 285.437 89.3492 295.88C92.1387 308.162 101.095 317.723 110.711 325.298C118.126 331.108 126.054 336.33 134.276 340.963C138.386 343.537 142.718 345.964 147.049 348.171C151.673 350.451 156.518 352.584 161.437 354.054C164.814 355.084 168.264 355.967 171.714 356.408C174.063 356.702 176.412 356.849 178.761 356.776C179.936 356.776 181.11 356.702 182.212 356.555C185.442 356.261 188.672 355.378 191.828 354.349C194.03 353.613 196.159 352.657 198.215 351.48C199.83 350.598 201.445 349.642 202.913 348.612C212.162 350.818 221.559 352.069 231.102 351.922C251.436 351.554 270.523 343.317 285.939 330.152C302.896 315.737 314.862 296.542 323.964 276.391C334.168 254.033 341.803 230.278 348.483 206.523Z" fill="#EF9E81"/>
    <path d="M98.8768 268.978C112.93 278.037 127.498 286.36 142.434 293.8C149.791 297.482 157.296 301.018 164.948 304.112C172.526 307.205 180.325 309.857 188.419 311.477C195.924 312.95 204.09 313.687 211.669 312.214C216.378 311.33 221.454 310.151 225.501 307.5C227.929 305.953 229.989 303.964 231.902 301.828C233.594 299.913 235.36 297.851 236.611 295.641C238.598 292.032 239.701 287.981 240.143 283.93C241.393 273.691 238.083 263.085 229.842 256.603C228.665 255.646 227.34 254.762 226.016 254.025C224.986 253.436 224.103 254.983 225.06 255.646C229.842 258.445 233.668 262.422 236.022 267.504C238.009 271.776 238.745 276.638 238.524 281.352C238.303 285.403 237.494 289.454 235.802 293.137C235.066 294.757 234.109 296.23 233.006 297.63C231.019 300.208 228.812 302.638 226.31 304.701C222.779 307.573 218.438 308.826 214.097 309.857C206.886 311.624 199.308 311.403 192.024 310.299C176.279 307.868 161.49 301.092 147.29 294.168C132.722 287.097 118.522 279.216 104.836 270.598C103.144 269.567 101.526 268.462 99.8333 267.431C98.8032 266.768 97.8467 268.388 98.8768 268.978Z" fill="#C4674E"/>
    <path d="M112.562 211.378C128.969 219.112 145.524 226.625 162.079 233.843C177.971 240.841 194.011 247.838 210.786 252.478C218.879 254.762 227.561 256.898 236.022 255.425C242.276 254.32 248.015 251.153 252.43 246.66C256.918 242.093 260.155 236.2 261.48 229.866C262.289 226.183 261.995 222.353 261.333 218.67C259.346 207.99 252.871 198.341 243.454 192.964C242.056 192.154 240.584 191.491 239.039 190.828C237.935 190.386 237.494 192.154 238.524 192.596C248.751 196.868 256.109 205.707 258.905 216.313C259.861 219.996 260.376 223.9 259.935 227.656C259.346 233.107 256.624 238.631 253.239 242.903C249.34 247.691 244.116 251.3 238.156 252.994C230.284 255.13 222.043 253.51 214.318 251.447C198.057 247.249 182.533 240.693 167.155 233.991C151.116 226.993 135.223 219.849 119.331 212.483C117.344 211.525 115.358 210.642 113.371 209.684C112.415 209.316 111.532 210.936 112.562 211.378Z" fill="#C4674E"/>
    <path d="M129.852 148.991C148.467 156.725 166.493 165.785 184.814 173.961C193.863 178.012 203.06 181.842 212.405 185.23C221.896 188.692 231.755 192.08 241.835 193.185C250.59 194.216 259.935 193.038 267.366 187.882C270.75 185.525 273.62 182.431 275.459 178.749C277.372 174.992 278.255 170.72 278.181 166.522C278.181 157.83 274.282 149.802 268.543 143.394C262.289 136.396 254.049 131.535 245.514 127.778C238.23 124.538 230.725 121.886 223.294 119.013C216.01 116.214 208.873 113.268 201.81 110.027C199.529 108.996 197.248 107.965 194.967 106.86C193.937 106.344 192.98 107.965 194.011 108.48C201.662 112.016 209.388 115.404 217.187 118.571C223.735 121.149 230.284 123.654 236.832 126.158C245.587 129.546 254.343 133.45 261.7 139.416C268.175 144.719 273.693 151.79 275.606 160.04C277.519 168.142 275.827 177.275 269.867 183.315C263.908 189.355 255.152 191.712 246.838 191.565C236.832 191.417 226.973 188.177 217.628 185.009C208.284 181.842 199.161 178.159 190.185 174.255C172.232 166.448 154.721 157.609 136.695 149.875C134.561 148.918 132.354 148.034 130.22 147.15C129.264 146.708 128.749 148.549 129.852 148.991Z" fill="#C4674E"/>
    <path d="M204.458 344.991C207.181 339.393 208.284 332.985 207.549 326.797C207.181 323.778 206.445 320.758 205.268 317.885C204.238 315.381 202.913 312.066 200.117 311.182C199.014 310.814 198.499 312.582 199.602 312.95C200.853 313.318 201.589 314.571 202.178 315.675C202.84 316.928 203.428 318.18 203.943 319.505C204.9 322.157 205.562 324.882 205.783 327.681C206.298 333.279 205.268 338.951 202.84 344.033C202.325 345.138 203.943 346.095 204.458 344.991Z" fill="#C4674E"/>
    <path d="M234.477 179.043C234.845 167.7 239.775 156.725 247.942 148.918C248.825 148.107 247.5 146.782 246.617 147.592C238.082 155.768 233.006 167.184 232.564 178.969C232.638 180.222 234.477 180.222 234.477 179.043Z" fill="#C4674E"/>
    <path d="M245.072 151.422C249.193 152.601 253.313 154 257.065 156.136C260.082 157.83 262.878 160.335 263.466 163.944C264.055 167.479 262.436 171.088 259.861 173.445C257.139 176.023 253.313 177.202 249.634 177.496C244.557 177.865 239.554 176.465 234.698 175.066C233.594 174.771 233.079 176.539 234.183 176.834C242.718 179.338 252.945 181.474 260.523 175.287C263.466 172.856 265.453 169.1 265.379 165.196C265.379 161.145 263.025 157.904 259.861 155.694C257.948 154.368 255.814 153.337 253.681 152.453C251.032 151.348 248.31 150.391 245.514 149.581C244.41 149.286 243.969 151.054 245.072 151.422Z" fill="#C4674E"/>
    <path d="M212.037 237.526C212.405 225.373 217.702 213.662 226.458 205.265C227.341 204.455 226.016 203.129 225.133 203.939C216.01 212.63 210.565 224.857 210.124 237.526C210.124 238.705 211.963 238.705 212.037 237.526Z" fill="#C4674E"/>
    <path d="M223.441 207.916C227.782 209.168 232.196 210.715 236.17 212.925C239.48 214.766 242.571 217.491 243.159 221.469C243.674 225.225 241.982 229.056 239.26 231.56C236.243 234.359 232.123 235.611 228.15 235.906C222.705 236.274 217.408 234.801 212.257 233.328C211.154 233.033 210.639 234.801 211.742 235.095C220.719 237.747 231.608 240.03 239.628 233.622C242.865 231.044 244.999 226.993 244.999 222.795C244.999 218.449 242.424 214.987 239.039 212.557C236.979 211.083 234.698 210.052 232.417 209.095C229.621 207.916 226.752 206.885 223.882 206.075C222.779 205.78 222.264 207.548 223.441 207.916Z" fill="#C4674E"/>
    <path d="M192.171 296.82C192.539 284.666 197.837 272.955 206.592 264.558C207.475 263.748 206.151 262.422 205.268 263.232C196.144 271.924 190.7 284.151 190.258 296.82C190.258 297.998 192.098 297.998 192.171 296.82Z" fill="#C4674E"/>
    <path d="M203.576 267.136C207.917 268.388 212.331 269.935 216.304 272.145C219.615 273.986 222.705 276.711 223.294 280.689C223.809 284.445 222.117 288.275 219.394 290.78C216.378 293.579 212.258 294.831 208.284 295.125C202.84 295.494 197.542 294.021 192.392 292.547C191.288 292.253 190.773 294.021 191.877 294.315C200.853 296.967 211.742 299.25 219.762 292.842C223 290.264 225.133 286.213 225.133 282.015C225.133 277.669 222.558 274.207 219.174 271.776C217.114 270.303 214.833 269.272 212.552 268.314C209.756 267.136 206.886 266.105 204.017 265.295C202.913 265 202.398 266.841 203.576 267.136Z" fill="#C4674E"/>
    <path d="M168.553 341.529C168.847 332.395 172.821 323.557 179.442 317.222C180.325 316.412 179.001 315.086 178.118 315.896C171.128 322.525 167.008 331.88 166.714 341.455C166.714 342.707 168.553 342.707 168.553 341.529Z" fill="#C4674E"/>
    <path d="M176.941 319.284C180.178 320.242 183.489 321.347 186.432 323.041C188.86 324.44 191.215 326.429 191.656 329.375C192.098 332.174 190.773 335.121 188.713 336.962C186.432 339.024 183.342 339.908 180.399 340.129C176.352 340.35 172.453 339.319 168.553 338.14C167.45 337.846 166.935 339.614 168.038 339.908C174.954 341.897 183.268 343.665 189.375 338.73C191.877 336.741 193.495 333.647 193.495 330.407C193.495 327.092 191.583 324.367 188.934 322.452C185.549 320.021 181.282 318.622 177.309 317.517C176.279 317.148 175.837 318.916 176.941 319.284Z" fill="#C4674E"/>
    <path d="M400.832 262.864L394.726 241.872L389.06 262.864L368.753 269.566L389.06 276.416L394.726 299.176L401.127 276.564L420.698 269.566L400.832 262.864Z" fill="#FFD62A"/>
    <path d="M62.898 101.336L56.9384 80.7857L51.3466 101.262L31.4811 107.891L51.3466 114.52L56.9384 136.838L63.1923 114.668L82.3956 107.891L62.898 101.336Z" fill="#FFD62A"/>
    <path d="M440.416 208.874L436.737 196.205L433.279 208.874L421.066 212.851L433.279 216.976L436.737 230.75L440.563 217.123L452.409 212.851L440.416 208.874Z" fill="#FFD62A"/>
    <path d="M19.7826 169.467L16.1774 157.093L12.7929 169.467L0.799988 173.445L12.7929 177.422L16.1774 190.901L19.9297 177.496L31.4812 173.445L19.7826 169.467Z" fill="#FFD62A"/>
    <path d="M252.136 10.4439L249.192 0.205673L246.397 10.4439L236.537 13.6848L246.397 16.9993L249.192 28.1214L252.283 17.0729L261.848 13.6848L252.136 10.4439Z" fill="#FFD62A"/>
    <path d="M59.8814 326.503L56.9384 316.264L54.1425 326.503L44.2833 329.817L54.1425 333.132L56.9384 344.18L60.0286 333.205L69.5934 329.817L59.8814 326.503Z" fill="#FFD62A"/>
</svg>
